<?xml version="1.0" encoding="utf-8"?>
<!-- Generator: Adobe Illustrator 25.2.1, SVG Export Plug-In . SVG Version: 6.00 Build 0)  -->
<svg version="1.1" xmlns="http://www.w3.org/2000/svg" xmlns:xlink="http://www.w3.org/1999/xlink" x="0px" y="0px"
	 viewBox="0 0 360 360" style="enable-background:new 0 0 360 360;" xml:space="preserve">
<style type="text/css">
	.st0{display:none;}
	.st1{display:inline;}
	.st2{fill:#FFFFFF;}
</style>
<g id="Layer_1" class="st0">
	<g class="st1">
		<path d="M183.92,277.97c-29.59-0.19-56.55-5.92-81.71-19.08c-17.3-9.05-32.21-20.98-43.5-37.1c-7.71-11.01-12.9-23.08-14.86-36.42
			c-2.69-18.32,0.98-35.46,10.12-51.47c9.32-16.33,22.66-28.7,38.54-38.46c16.13-9.92,33.66-16.22,52.19-19.87
			c13.54-2.67,27.22-3.78,40.98-3.23c33.2,1.32,64.11,9.98,91.4,29.57c14.83,10.64,26.7,23.89,34.49,40.55
			c3.99,8.53,6.49,17.5,7.29,26.88c1.54,18.16-2.98,34.86-12.62,50.21c-9.59,15.27-22.7,26.87-38.05,36.07
			c-6.74,4.04-13.78,7.48-21.1,10.32c-1.13,0.44-2.42,0.71-3.62,0.65c-1.86-0.09-3.36-1.59-3.75-3.39c-0.42-1.96,0.21-3.58,1.8-4.75
			c0.67-0.49,1.48-0.82,2.26-1.14c16.7-6.73,31.76-15.96,44.15-29.2c10.13-10.82,17.37-23.25,20.46-37.88
			c3.49-16.55,0.88-32.27-6.86-47.18c-7.71-14.86-19.13-26.38-32.83-35.75c-16.22-11.09-34.17-18.06-53.31-22.14
			c-13.95-2.97-28.07-4.16-42.29-3.56c-28.66,1.21-55.6,8.33-79.76,24.31c-13.41,8.87-24.53,20-32.27,34.25
			c-4.71,8.66-7.64,17.89-8.53,27.71c-1.3,14.4,1.93,27.88,8.8,40.51c8.15,14.97,19.99,26.48,34.11,35.76
			c15.59,10.24,32.71,16.79,50.88,20.71c14.98,3.23,30.15,4.3,45.42,3.54c5.97-0.29,11.91-1.19,17.86-1.84
			c2.83-0.31,5.15,1.24,5.56,3.79c0.4,2.5-1.21,4.86-3.97,5.27c-4.88,0.73-9.79,1.37-14.7,1.78
			C191.88,277.81,187.22,277.84,183.92,277.97z"/>
		<path d="M228.99,172.54c-4.63,0.48-9.62,0.99-14.73,1.51c0.09,1.59,0.14,3.02,0.25,4.44c0.45,5.52,1.09,11.03,1.34,16.56
			c0.23,5.18,0.27,10.39-0.01,15.56c-0.23,4.17-0.8,8.36-1.71,12.43c-0.8,3.57-2.16,7.05-3.54,10.46c-1.02,2.54-3.65,3.48-5.95,2.53
			c-2.25-0.93-3.37-3.47-2.45-6.02c1.51-4.18,3.29-8.3,3.66-12.77c0.47-5.76,1.06-11.55,0.92-17.31c-0.19-7.68-1.06-15.33-1.57-23
			c-0.26-3.93-0.68-7.89-0.53-11.81c0.29-7.4,2.27-14.29,7.5-19.88c4.18-4.47,8.02-9.14,10.74-14.7c2.43-4.97,4.02-10.09,3.92-15.67
			c-0.03-1.7,0.05-3.4-0.03-5.1c-0.08-1.74-0.27-3.41-1.45-4.91c-1.31-1.66-1.07-3.86,0.25-5.4c1.32-1.54,3.41-2.06,5.3-1.17
			c0.79,0.37,1.72,0.87,2.12,1.58c0.95,1.64,2.35,2.05,4.06,2.29c7.31,1.03,13.1,4.91,18.15,10.02c5.66,5.73,9.95,12.33,11.44,20.34
			c2.28,12.29-1.56,22.34-11.69,29.84c-4.34,3.21-9.18,5.45-14.28,7.13c-1.02,0.34-1.5,0.82-1.72,1.91
			c-1.23,6.07-0.42,12.02,0.79,17.96c1.44,7.06,3.89,13.71,8.03,19.69c1.84,2.66,3.87,5.05,6.72,6.72c2.4,1.4,3.18,3.96,2.04,6.16
			c-1.17,2.26-3.75,3.11-6.31,1.95c-3.96-1.79-6.76-4.94-9.24-8.35c-6.41-8.81-9.82-18.81-11.17-29.52
			C229.27,181.6,229.26,177.11,228.99,172.54z M236.09,111.32c0,1.6,0.13,3.06-0.03,4.49c-0.38,3.31-0.54,6.71-1.43,9.89
			c-2.13,7.69-5.91,14.59-11.09,20.68c-1.75,2.06-3.61,4.01-5.35,6.07c-2.96,3.51-3.67,7.81-4.37,12.32
			c1.23-0.15,2.21-0.26,3.19-0.38c4.69-0.6,9.45-0.91,14.07-1.86c7.13-1.47,13.93-3.96,19.69-8.65c5.92-4.81,8.1-11.12,6.96-18.54
			c-1.16-7.51-5.4-13.31-10.87-18.31C243.85,114.27,240.45,112.14,236.09,111.32z"/>
		<path d="M181.46,242.29c-1.58,0.27-3,0.53-4.43,0.74c-7.51,1.15-14.69-0.19-21.28-3.73c-10.28-5.53-13.81-15.25-9.76-26.2
			c4.12-11.12,12.48-17.67,23.54-21.06c6.2-1.9,12.62-2.45,19.09-2.42c1.08,0.01,2.16,0.19,3.78,0.34
			c-1.22-3.35-1.95-6.56-3.48-9.34c-3.16-5.78-7.93-10.06-14.1-12.46c-4.36-1.69-8.97-2.2-13.68-1.59
			c-3.64,0.47-7.13,1.33-10.51,2.8c-2.6,1.13-5.19,0.08-6.19-2.24c-1.01-2.33-0.01-4.88,2.52-6.13c3.84-1.9,7.93-2.89,12.17-3.5
			c5.07-0.73,10.08-0.45,15.01,0.77c8.61,2.12,15.29,7.13,20.54,14.16c4.13,5.52,6.07,11.8,6.67,18.62
			c0.57,6.48-0.76,12.57-2.96,18.6c-2.42,6.65-4.76,13.34-6.81,20.11c-1.4,4.63-1.12,9.5-0.71,14.28c0.11,1.24,0.75,2.47,1.3,3.63
			c1.21,2.57,0.63,5.14-1.56,6.44c-2.18,1.29-4.84,0.64-6.39-1.73C182.28,249.37,181.48,245.99,181.46,242.29z M191.9,199.47
			c-0.9-0.22-1.48-0.37-2.06-0.48c-0.29-0.06-0.59-0.08-0.89-0.08c-6.17-0.11-12.3,0.4-18.14,2.46c-8.25,2.91-14.37,8.1-16.71,16.93
			c-1.27,4.78,0.23,9.12,4.29,11.78c5.33,3.49,11.25,4.6,17.54,3.73c1.58-0.22,3.13-0.65,4.71-0.83c0.83-0.09,1.03-0.41,1.17-1.17
			c0.51-2.74,0.89-5.54,1.76-8.17c2.02-6.1,4.31-12.11,6.45-18.17C190.7,203.56,191.24,201.6,191.9,199.47z"/>
		<path d="M276.41,185.45c-1.36,0.09-2.74,0.18-4.12,0.29c-6.11,0.45-11.56-1.07-16.16-5.27c-1.36-1.25-2.91-2.3-4.18-3.64
			c-2.7-2.85-1.65-7.08,1.9-8.03c1.59-0.42,2.95,0.05,4.16,1.08c1.1,0.94,2.27,1.82,3.27,2.85c3.64,3.78,8.14,4.28,12.99,3.59
			c1.13-0.16,2.27-0.22,3.59-0.34c0.27-2.17,0.73-4.37,0.8-6.59c0.2-6.19,0.53-12.39,0.23-18.56c-0.2-4.14-1.32-8.25-2.13-12.35
			c-0.38-1.9-0.95-3.76-1.51-5.62c-0.68-2.3,0.19-4.61,2.19-5.64c2.03-1.04,4.48-0.48,5.8,1.56c0.75,1.15,1.36,2.47,1.68,3.81
			c1.04,4.41,2.13,8.83,2.78,13.31c0.56,3.84,0.75,7.76,0.74,11.64c-0.02,14.38-2.36,28.52-4.98,42.6
			c-2.02,10.91-6.37,20.96-11.99,30.49c-3.3,5.59-7.88,9.88-13.29,13.37c-7.43,4.79-15.35,8.55-23.74,11.26
			c-3.86,1.24-5.32,4.06-5.85,7.71c-0.12,0.84-0.15,1.7-0.39,2.51c-0.67,2.27-2.67,3.6-4.87,3.33c-2.16-0.26-3.87-2.09-4.06-4.36
			c-0.62-7.36,4.11-14.89,11.08-17.53c5.79-2.19,11.66-4.15,17.04-7.3c3.96-2.32,7.98-4.52,11.35-7.75c4.03-3.86,6.4-8.74,8.85-13.6
			c5.15-10.22,7.45-21.22,8.91-32.45C276.51,185.73,276.46,185.64,276.41,185.45z"/>
		<path d="M78.12,160.18c4.25-0.09,8.5-0.51,12.69-0.19c5.5,0.41,11.16,0.73,16.4,2.27c11.57,3.39,19.03,11.37,23.01,22.75
			c2.74,7.83,2.36,15.62,0.81,23.61c-1.93,9.95-5.74,19.08-11.07,27.62c-0.63,1.02-1.32,2-2.07,2.94c-1.86,2.35-4.62,2.84-6.73,1.24
			c-2.06-1.56-2.39-4.26-0.72-6.7c3.14-4.59,5.93-9.38,7.91-14.58c2.94-7.75,5.3-15.73,4.58-24.08
			c-1.16-13.38-10.21-23.63-23.25-25.02c-5.47-0.58-10.93-1.22-16.43-0.83c-1.83,0.13-3.64,0.58-5.43,0.99
			c-0.31,0.07-0.66,0.65-0.73,1.04c-1.22,6.41-2.38,12.84-3.61,19.25c-0.17,0.87-0.47,1.75-0.89,2.52
			c-1.09,1.96-3.33,2.76-5.41,2.05c-2.17-0.75-3.52-2.79-3.07-5.04c0.79-4.01,1.99-7.96,2.55-11.99c0.89-6.36,1.4-12.78,2.06-19.18
			c0.03-0.25,0-0.5-0.02-0.75c-0.19-2.61-0.89-3.28-3.47-3.33c-2.2-0.04-3.92-1.17-4.57-3.01c-0.64-1.79-0.17-3.86,1.43-4.97
			c0.94-0.65,2.15-1.17,3.28-1.24c6.55-0.38,11.26,3.54,12.31,10.13C77.93,157.25,77.99,158.85,78.12,160.18z"/>
		<path d="M84.52,135.56c0.31-9.92,4.38-18.12,10.99-25.16c5.5-5.85,12.06-10.07,20.06-11.53c8.72-1.59,16.48,0.19,22.02,7.69
			c3.58,4.85,4.71,10.48,3.75,16.36c-2.65,16.2-12.04,26.96-27.28,32.57c-6.09,2.24-12.41,2.25-18.36-0.75
			C87.84,150.78,84.76,143.94,84.52,135.56z M93.89,133.6c-0.01,8.48,3.07,12.76,9.02,13.78c2.19,0.38,4.62,0.21,6.8-0.31
			c11.33-2.69,21.18-13.71,22.49-25.41c1.04-9.24-4.53-15.43-14.53-13.74c-5.94,1.01-10.79,4.1-14.92,8.33
			C97.53,121.59,94.13,127.83,93.89,133.6z"/>
		<path d="M169.2,103.32c-2.48-2.66-4.78-5.2-7.19-7.61c-0.35-0.35-1.36-0.35-1.92-0.15c-3.32,1.23-6.57,2.63-9.9,3.82
			c-1.12,0.4-2.47,0.61-3.62,0.4c-1.94-0.35-3.1-1.79-3.35-3.76c-0.24-1.91,0.51-3.61,2.19-4.44c5.1-2.51,10.23-5.05,15.99-5.68
			c2.49-0.27,4.55,0.81,6.39,2.42c4.2,3.69,7.69,7.97,10.64,12.71c3.75,6.04,6.84,12.4,9.53,18.97c0.91,2.21,2.04,4.32,3.14,6.44
			c0.95,1.82,1,3.67-0.29,5.21c-6.08,7.25-12.88,13.64-22.38,16.02c-3.34,0.84-6.88,1.12-10.33,1.13c-3.25,0.01-5.88-1.87-7.9-4.35
			c-5.09-6.23-5.91-13.12-2.38-20.29c4.33-8.8,11.27-15.14,19.7-19.96C167.92,103.96,168.36,103.76,169.2,103.32z M154.69,132.39
			c0.12,0.05,0.24,0.09,0.37,0.14c-0.1,2.32,0.65,4.41,2.31,5.95c0.78,0.72,2.11,1.26,3.17,1.21c8.46-0.35,14.72-5.02,20.39-10.74
			c0.24-0.24,0.4-0.84,0.27-1.13c-2.16-4.93-4.34-9.85-6.61-14.74c-0.2-0.44-0.97-0.86-1.47-0.85c-0.75,0.01-1.59,0.25-2.23,0.65
			c-5.84,3.66-10.85,8.19-14.21,14.29C155.79,128.78,155.35,130.64,154.69,132.39z"/>
		<path d="M303.43,163.33c-0.12,3.64-1.1,5.88-3.34,7.5c-1.54,1.12-1.5,1.57-0.17,3.01c0.9,0.98,1.89,1.99,2.4,3.17
			c1.3,3.04,0.08,6.17-2.81,7.81c-0.39,0.22-0.8,0.41-1.2,0.61c-1.67,0.82-1.89,1.55-0.93,3.14c0.26,0.43,0.59,0.8,0.9,1.19
			c3.01,3.73,2.09,8.59-2.05,10.99c-0.85,0.49-1.67,1.11-2.35,1.82c-1.22,1.29-1.25,2.6-0.28,4.07c2.2,3.3,1.62,6.28-1.73,8.42
			c-1.04,0.67-2.19,1.21-3.35,1.64c-1.27,0.47-2.56-0.13-2.97-1.27c-0.48-1.32,0.1-2.22,1.25-2.84c0.92-0.5,1.92-0.88,2.74-1.51
			c0.36-0.27,0.62-1.19,0.43-1.56c-2.82-5.4-1.62-9.51,3.68-12.65c0.66-0.39,1.43-1.14,1.51-1.8c0.1-0.86-0.21-1.97-0.74-2.67
			c-1.31-1.74-2.17-3.57-2.24-5.76c-0.07-2.09,0.74-3.68,2.67-4.62c0.67-0.33,1.35-0.65,2.01-1c1.62-0.87,1.69-1.96,0.5-3.35
			c-1.08-1.27-2.19-2.62-2.82-4.13c-0.95-2.31-0.24-4.43,1.91-5.71c2.88-1.72,2.83-4.51,0.9-6.68c-0.93-1.05-1.84-2.12-2.64-3.26
			c-0.97-1.39-0.79-2.82,0.31-3.59c1.12-0.79,2.35-0.43,3.45,0.99c1.05,1.34,2.28,2.56,3.14,4
			C302.52,160.78,303.07,162.49,303.43,163.33z"/>
		<path d="M212.11,128.69c0.01,2.52-1.33,4.31-3.39,4.83c-2.09,0.53-4.38-0.37-5.19-2.51c-0.87-2.31-1.4-4.76-1.89-7.19
			c-0.85-4.14-1.58-8.31-2.3-12.48c-0.14-0.82-0.15-1.71-0.02-2.53c0.4-2.42,2.41-4.12,4.66-4.06c2.26,0.06,4.04,1.86,4.48,4.28
			c1.12,6.21,2.32,12.41,3.49,18.62C212.02,128.09,212.08,128.54,212.11,128.69z"/>
		<path d="M192.12,134.62c1.6,0.2,2.43,0.8,2.62,1.97c0.28,1.64,1.31,2.3,2.83,2.29c1.34-0.02,2.69-0.13,4.02-0.3
			c1.24-0.16,2.32-0.03,2.96,1.18c0.68,1.28,0.17,2.36-0.78,3.22c-2.25,2.03-4.27,4.23-5.39,7.08c-0.76,1.93-1.45,3.91-1.9,5.93
			c-0.44,1.96-1.33,3.43-2.66,3.6c-1.3,0.17-3.29-1.42-3.84-3.05c-0.37-1.09-0.68-2.2-1.14-3.24c-0.67-1.51-1.77-2.51-3.52-2.58
			c-1.09-0.04-1.93-0.44-2.37-1.5c-0.48-1.16-0.04-2.13,0.8-2.82c2.62-2.14,4.34-4.92,5.74-7.93c0.36-0.77,0.53-1.65,1-2.32
			C190.95,135.47,191.7,134.99,192.12,134.62z M192.83,150.68c0.63-1.18,1.26-2.36,1.89-3.53c0.65-1.2,1.3-2.41,1.95-3.6
			c-1.18-0.36-2.26-0.69-3.27-1c-1.29,1.65-2.53,3.23-3.77,4.81c0.6,0.51,1.18,0.92,1.66,1.42
			C191.8,149.31,192.23,149.93,192.83,150.68z"/>
		<path d="M192.57,87.23c4.71,0.5,9.72,1,14.73,1.57c2.63,0.3,4.47,2.61,4.19,5.11c-0.28,2.47-2.66,4.33-5.25,4.07
			c-5.36-0.54-10.72-1.09-16.08-1.66c-2.23-0.24-3.95-2.14-4.01-4.35c-0.06-2.32,1.76-4.41,4.18-4.73
			C190.95,87.16,191.61,87.23,192.57,87.23z"/>
		<path d="M124.87,158.9c5.3,0.02,8.56,4.05,7.35,9.12c-0.11,0.48-0.21,0.97-0.25,1.47c-0.16,2.03,0,2.24,2.03,2.75
			c1.6,0.4,2.37,1.45,1.98,2.77c-0.38,1.3-1.35,1.81-2.62,1.77c-3.32-0.09-6.18-3.04-6.08-6.36c0.04-1.28,0.32-2.56,0.54-3.84
			c0.29-1.63-0.18-2.5-1.81-2.8c-0.91-0.16-1.87-0.03-2.81,0.03c-1.56,0.11-2.65-0.52-2.91-1.73c-0.27-1.31,0.49-2.37,2.08-2.78
			C123.18,159.1,124.03,159.03,124.87,158.9z"/>
		<path d="M130.03,239.12c-1.39-0.01-2.45-0.81-2.6-1.99c-0.16-1.25,0.53-2.13,2.01-2.54c2.17-0.6,2.55-1.14,2.29-3.39
			c-0.09-0.79-0.22-1.58-0.37-2.36c-0.71-3.67,0.44-6.56,3.57-8.67c1.29-0.87,2.54-0.94,3.38-0.01c0.9,1,0.92,2.54-0.4,3.42
			c-2.29,1.52-2.2,3.47-1.82,5.77c0.25,1.54,0.36,3.21,0.05,4.72C135.54,237,132.77,239.13,130.03,239.12z"/>
		<path d="M140.98,200.05c0.24,0.2,0.48,0.38,0.69,0.57c0.89,0.81,1.14,1.8,0.47,2.82c-0.63,0.95-1.58,1.3-2.74,0.96
			c-2.87-0.85-4.13-4.21-2.48-6.75c0.46-0.71,1.11-1.28,1.59-1.98c0.95-1.36,0.69-2.24-0.77-2.92c-1.5-0.7-2.07-1.83-1.56-3.09
			c0.48-1.18,1.65-1.62,3.15-1.2c3.82,1.07,5.46,5.01,3.57,8.73C142.42,198.16,141.7,199.01,140.98,200.05z"/>
		<path d="M137.57,215.34c-1.28-0.01-2.47-1.24-2.47-2.56c0-1.42,1.3-2.68,2.73-2.64c1.36,0.04,2.52,1.21,2.5,2.51
			C140.32,213.97,138.89,215.36,137.57,215.34z"/>
		<path d="M136.46,180.93c1.23-0.04,2.4,1.08,2.46,2.34c0.06,1.27-1,2.44-2.26,2.52c-1.32,0.09-2.53-1.04-2.54-2.39
			C134.09,182.18,135.24,180.98,136.46,180.93z"/>
		<path d="M111.24,138.52c-3.06-0.24-5.9-1.56-7.47-4.84c-1.51-3.16-0.89-6.14,1.11-8.87c1.22-1.67,3.31-1.71,4.01-0.05
			c0.29,0.69,0.17,1.8-0.2,2.49c-1.35,2.52-1.41,4.28,0.04,5.58c1.57,1.39,4.46,1.37,6.41-0.1c0.47-0.36,0.86-0.84,1.29-1.25
			c1.03-0.96,2.29-1.04,3.24-0.2c0.94,0.83,1.01,2.11,0.2,3.25C118.24,136.79,114.62,138.55,111.24,138.52z"/>
		<path d="M122.7,125.99c-1.37,0.03-2.5-1.06-2.52-2.43c-0.02-1.68,1.82-3.74,3.42-3.83c1.38-0.08,2.92,1.29,2.96,2.64
			C126.61,123.84,124.36,125.95,122.7,125.99z"/>
		<path d="M116.16,114.6c1.39,0.02,2.6,1.22,2.6,2.58c0,1.56-2.13,3.65-3.68,3.6c-1.34-0.04-2.42-1.23-2.36-2.6
			C112.79,116.52,114.65,114.58,116.16,114.6z"/>
	</g>
</g>
<g id="Layer_1_copy">
	<g>
		<path class="st2" d="M183.92,277.97c-29.59-0.19-56.55-5.92-81.71-19.08c-17.3-9.05-32.21-20.98-43.5-37.1
			c-7.71-11.01-12.9-23.08-14.86-36.42c-2.69-18.32,0.98-35.46,10.12-51.47c9.32-16.33,22.66-28.7,38.54-38.46
			c16.13-9.92,33.66-16.22,52.19-19.87c13.54-2.67,27.22-3.78,40.98-3.23c33.2,1.32,64.11,9.98,91.4,29.57
			c14.83,10.64,26.7,23.89,34.49,40.55c3.99,8.53,6.49,17.5,7.29,26.88c1.54,18.16-2.98,34.86-12.62,50.21
			c-9.59,15.27-22.7,26.87-38.05,36.07c-6.74,4.04-13.78,7.48-21.1,10.32c-1.13,0.44-2.42,0.71-3.62,0.65
			c-1.86-0.09-3.36-1.59-3.75-3.39c-0.42-1.96,0.21-3.58,1.8-4.75c0.67-0.49,1.48-0.82,2.26-1.14c16.7-6.73,31.76-15.96,44.15-29.2
			c10.13-10.82,17.37-23.25,20.46-37.88c3.49-16.55,0.88-32.27-6.86-47.18c-7.71-14.86-19.13-26.38-32.83-35.75
			c-16.22-11.09-34.17-18.06-53.31-22.14c-13.95-2.97-28.07-4.16-42.29-3.56c-28.66,1.21-55.6,8.33-79.76,24.31
			c-13.41,8.87-24.53,20-32.27,34.25c-4.71,8.66-7.64,17.89-8.53,27.71c-1.3,14.4,1.93,27.88,8.8,40.51
			c8.15,14.97,19.99,26.48,34.11,35.76c15.59,10.24,32.71,16.79,50.88,20.71c14.98,3.23,30.15,4.3,45.42,3.54
			c5.97-0.29,11.91-1.19,17.86-1.84c2.83-0.31,5.15,1.24,5.56,3.79c0.4,2.5-1.21,4.86-3.97,5.27c-4.88,0.73-9.79,1.37-14.7,1.78
			C191.88,277.81,187.22,277.84,183.92,277.97z"/>
		<path class="st2" d="M228.99,172.54c-4.63,0.48-9.62,0.99-14.73,1.51c0.09,1.59,0.14,3.02,0.25,4.44
			c0.45,5.52,1.09,11.03,1.34,16.56c0.23,5.18,0.27,10.39-0.01,15.56c-0.23,4.17-0.8,8.36-1.71,12.43
			c-0.8,3.57-2.16,7.05-3.54,10.46c-1.02,2.54-3.65,3.48-5.95,2.53c-2.25-0.93-3.37-3.47-2.45-6.02c1.51-4.18,3.29-8.3,3.66-12.77
			c0.47-5.76,1.06-11.55,0.92-17.31c-0.19-7.68-1.06-15.33-1.57-23c-0.26-3.93-0.68-7.89-0.53-11.81c0.29-7.4,2.27-14.29,7.5-19.88
			c4.18-4.47,8.02-9.14,10.74-14.7c2.43-4.97,4.02-10.09,3.92-15.67c-0.03-1.7,0.05-3.4-0.03-5.1c-0.08-1.74-0.27-3.41-1.45-4.91
			c-1.31-1.66-1.07-3.86,0.25-5.4c1.32-1.54,3.41-2.06,5.3-1.17c0.79,0.37,1.72,0.87,2.12,1.58c0.95,1.64,2.35,2.05,4.06,2.29
			c7.31,1.03,13.1,4.91,18.15,10.02c5.66,5.73,9.95,12.33,11.44,20.34c2.28,12.29-1.56,22.34-11.69,29.84
			c-4.34,3.21-9.18,5.45-14.28,7.13c-1.02,0.34-1.5,0.82-1.72,1.91c-1.23,6.07-0.42,12.02,0.79,17.96
			c1.44,7.06,3.89,13.71,8.03,19.69c1.84,2.66,3.87,5.05,6.72,6.72c2.4,1.4,3.18,3.96,2.04,6.16c-1.17,2.26-3.75,3.11-6.31,1.95
			c-3.96-1.79-6.76-4.94-9.24-8.35c-6.41-8.81-9.82-18.81-11.17-29.52C229.27,181.6,229.26,177.11,228.99,172.54z M236.09,111.32
			c0,1.6,0.13,3.06-0.03,4.49c-0.38,3.31-0.54,6.71-1.43,9.89c-2.13,7.69-5.91,14.59-11.09,20.68c-1.75,2.06-3.61,4.01-5.35,6.07
			c-2.96,3.51-3.67,7.81-4.37,12.32c1.23-0.15,2.21-0.26,3.19-0.38c4.69-0.6,9.45-0.91,14.07-1.86c7.13-1.47,13.93-3.96,19.69-8.65
			c5.92-4.81,8.1-11.12,6.96-18.54c-1.16-7.51-5.4-13.31-10.87-18.31C243.85,114.27,240.45,112.14,236.09,111.32z"/>
		<path class="st2" d="M181.46,242.29c-1.58,0.27-3,0.53-4.43,0.74c-7.51,1.15-14.69-0.19-21.28-3.73
			c-10.28-5.53-13.81-15.25-9.76-26.2c4.12-11.12,12.48-17.67,23.54-21.06c6.2-1.9,12.62-2.45,19.09-2.42
			c1.08,0.01,2.16,0.19,3.78,0.34c-1.22-3.35-1.95-6.56-3.48-9.34c-3.16-5.78-7.93-10.06-14.1-12.46c-4.36-1.69-8.97-2.2-13.68-1.59
			c-3.64,0.47-7.13,1.33-10.51,2.8c-2.6,1.13-5.19,0.08-6.19-2.24c-1.01-2.33-0.01-4.88,2.52-6.13c3.84-1.9,7.93-2.89,12.17-3.5
			c5.07-0.73,10.08-0.45,15.01,0.77c8.61,2.12,15.29,7.13,20.54,14.16c4.13,5.52,6.07,11.8,6.67,18.62
			c0.57,6.48-0.76,12.57-2.96,18.6c-2.42,6.65-4.76,13.34-6.81,20.11c-1.4,4.63-1.12,9.5-0.71,14.28c0.11,1.24,0.75,2.47,1.3,3.63
			c1.21,2.57,0.63,5.14-1.56,6.44c-2.18,1.29-4.84,0.64-6.39-1.73C182.28,249.37,181.48,245.99,181.46,242.29z M191.9,199.47
			c-0.9-0.22-1.48-0.37-2.06-0.48c-0.29-0.06-0.59-0.08-0.89-0.08c-6.17-0.11-12.3,0.4-18.14,2.46c-8.25,2.91-14.37,8.1-16.71,16.93
			c-1.27,4.78,0.23,9.12,4.29,11.78c5.33,3.49,11.25,4.6,17.54,3.73c1.58-0.22,3.13-0.65,4.71-0.83c0.83-0.09,1.03-0.41,1.17-1.17
			c0.51-2.74,0.89-5.54,1.76-8.17c2.02-6.1,4.31-12.11,6.45-18.17C190.7,203.56,191.24,201.6,191.9,199.47z"/>
		<path class="st2" d="M276.41,185.45c-1.36,0.09-2.74,0.18-4.12,0.29c-6.11,0.45-11.56-1.07-16.16-5.27
			c-1.36-1.25-2.91-2.3-4.18-3.64c-2.7-2.85-1.65-7.08,1.9-8.03c1.59-0.42,2.95,0.05,4.16,1.08c1.1,0.94,2.27,1.82,3.27,2.85
			c3.64,3.78,8.14,4.28,12.99,3.59c1.13-0.16,2.27-0.22,3.59-0.34c0.27-2.17,0.73-4.37,0.8-6.59c0.2-6.19,0.53-12.39,0.23-18.56
			c-0.2-4.14-1.32-8.25-2.13-12.35c-0.38-1.9-0.95-3.76-1.51-5.62c-0.68-2.3,0.19-4.61,2.19-5.64c2.03-1.04,4.48-0.48,5.8,1.56
			c0.75,1.15,1.36,2.47,1.68,3.81c1.04,4.41,2.13,8.83,2.78,13.31c0.56,3.84,0.75,7.76,0.74,11.64c-0.02,14.38-2.36,28.52-4.98,42.6
			c-2.02,10.91-6.37,20.96-11.99,30.49c-3.3,5.59-7.88,9.88-13.29,13.37c-7.43,4.79-15.35,8.55-23.74,11.26
			c-3.86,1.24-5.32,4.06-5.85,7.71c-0.12,0.84-0.15,1.7-0.39,2.51c-0.67,2.27-2.67,3.6-4.87,3.33c-2.16-0.26-3.87-2.09-4.06-4.36
			c-0.62-7.36,4.11-14.89,11.08-17.53c5.79-2.19,11.66-4.15,17.04-7.3c3.96-2.32,7.98-4.52,11.35-7.75c4.03-3.86,6.4-8.74,8.85-13.6
			c5.15-10.22,7.45-21.22,8.91-32.45C276.51,185.73,276.46,185.64,276.41,185.45z"/>
		<path class="st2" d="M78.12,160.18c4.25-0.09,8.5-0.51,12.69-0.19c5.5,0.41,11.16,0.73,16.4,2.27
			c11.57,3.39,19.03,11.37,23.01,22.75c2.74,7.83,2.36,15.62,0.81,23.61c-1.93,9.95-5.74,19.08-11.07,27.62
			c-0.63,1.02-1.32,2-2.07,2.94c-1.86,2.35-4.62,2.84-6.73,1.24c-2.06-1.56-2.39-4.26-0.72-6.7c3.14-4.59,5.93-9.38,7.91-14.58
			c2.94-7.75,5.3-15.73,4.58-24.08c-1.16-13.38-10.21-23.63-23.25-25.02c-5.47-0.58-10.93-1.22-16.43-0.83
			c-1.83,0.13-3.64,0.58-5.43,0.99c-0.31,0.07-0.66,0.65-0.73,1.04c-1.22,6.41-2.38,12.84-3.61,19.25
			c-0.17,0.87-0.47,1.75-0.89,2.52c-1.09,1.96-3.33,2.76-5.41,2.05c-2.17-0.75-3.52-2.79-3.07-5.04c0.79-4.01,1.99-7.96,2.55-11.99
			c0.89-6.36,1.4-12.78,2.06-19.18c0.03-0.25,0-0.5-0.02-0.75c-0.19-2.61-0.89-3.28-3.47-3.33c-2.2-0.04-3.92-1.17-4.57-3.01
			c-0.64-1.79-0.17-3.86,1.43-4.97c0.94-0.65,2.15-1.17,3.28-1.24c6.55-0.38,11.26,3.54,12.31,10.13
			C77.93,157.25,77.99,158.85,78.12,160.18z"/>
		<path class="st2" d="M84.52,135.56c0.31-9.92,4.38-18.12,10.99-25.16c5.5-5.85,12.06-10.07,20.06-11.53
			c8.72-1.59,16.48,0.19,22.02,7.69c3.58,4.85,4.71,10.48,3.75,16.36c-2.65,16.2-12.04,26.96-27.28,32.57
			c-6.09,2.24-12.41,2.25-18.36-0.75C87.84,150.78,84.76,143.94,84.52,135.56z M93.89,133.6c-0.01,8.48,3.07,12.76,9.02,13.78
			c2.19,0.38,4.62,0.21,6.8-0.31c11.33-2.69,21.18-13.71,22.49-25.41c1.04-9.24-4.53-15.43-14.53-13.74
			c-5.94,1.01-10.79,4.1-14.92,8.33C97.53,121.59,94.13,127.83,93.89,133.6z"/>
		<path class="st2" d="M169.2,103.32c-2.48-2.66-4.78-5.2-7.19-7.61c-0.35-0.35-1.36-0.35-1.92-0.15c-3.32,1.23-6.57,2.63-9.9,3.82
			c-1.12,0.4-2.47,0.61-3.62,0.4c-1.94-0.35-3.1-1.79-3.35-3.76c-0.24-1.91,0.51-3.61,2.19-4.44c5.1-2.51,10.23-5.05,15.99-5.68
			c2.49-0.27,4.55,0.81,6.39,2.42c4.2,3.69,7.69,7.97,10.64,12.71c3.75,6.04,6.84,12.4,9.53,18.97c0.91,2.21,2.04,4.32,3.14,6.44
			c0.95,1.82,1,3.67-0.29,5.21c-6.08,7.25-12.88,13.64-22.38,16.02c-3.34,0.84-6.88,1.12-10.33,1.13c-3.25,0.01-5.88-1.87-7.9-4.35
			c-5.09-6.23-5.91-13.12-2.38-20.29c4.33-8.8,11.27-15.14,19.7-19.96C167.92,103.96,168.36,103.76,169.2,103.32z M154.69,132.39
			c0.12,0.05,0.24,0.09,0.37,0.14c-0.1,2.32,0.65,4.41,2.31,5.95c0.78,0.72,2.11,1.26,3.17,1.21c8.46-0.35,14.72-5.02,20.39-10.74
			c0.24-0.24,0.4-0.84,0.27-1.13c-2.16-4.93-4.34-9.85-6.61-14.74c-0.2-0.44-0.97-0.86-1.47-0.85c-0.75,0.01-1.59,0.25-2.23,0.65
			c-5.84,3.66-10.85,8.19-14.21,14.29C155.79,128.78,155.35,130.64,154.69,132.39z"/>
		<path class="st2" d="M303.43,163.33c-0.12,3.64-1.1,5.88-3.34,7.5c-1.54,1.12-1.5,1.57-0.17,3.01c0.9,0.98,1.89,1.99,2.4,3.17
			c1.3,3.04,0.08,6.17-2.81,7.81c-0.39,0.22-0.8,0.41-1.2,0.61c-1.67,0.82-1.89,1.55-0.93,3.14c0.26,0.43,0.59,0.8,0.9,1.19
			c3.01,3.73,2.09,8.59-2.05,10.99c-0.85,0.49-1.67,1.11-2.35,1.82c-1.22,1.29-1.25,2.6-0.28,4.07c2.2,3.3,1.62,6.28-1.73,8.42
			c-1.04,0.67-2.19,1.21-3.35,1.64c-1.27,0.47-2.56-0.13-2.97-1.27c-0.48-1.32,0.1-2.22,1.25-2.84c0.92-0.5,1.92-0.88,2.74-1.51
			c0.36-0.27,0.62-1.19,0.43-1.56c-2.82-5.4-1.62-9.51,3.68-12.65c0.66-0.39,1.43-1.14,1.51-1.8c0.1-0.86-0.21-1.97-0.74-2.67
			c-1.31-1.74-2.17-3.57-2.24-5.76c-0.07-2.09,0.74-3.68,2.67-4.62c0.67-0.33,1.35-0.65,2.01-1c1.62-0.87,1.69-1.96,0.5-3.35
			c-1.08-1.27-2.19-2.62-2.82-4.13c-0.95-2.31-0.24-4.43,1.91-5.71c2.88-1.72,2.83-4.51,0.9-6.68c-0.93-1.05-1.84-2.12-2.64-3.26
			c-0.97-1.39-0.79-2.82,0.31-3.59c1.12-0.79,2.35-0.43,3.45,0.99c1.05,1.34,2.28,2.56,3.14,4
			C302.52,160.78,303.07,162.49,303.43,163.33z"/>
		<path class="st2" d="M212.11,128.69c0.01,2.52-1.33,4.31-3.39,4.83c-2.09,0.53-4.38-0.37-5.19-2.51c-0.87-2.31-1.4-4.76-1.89-7.19
			c-0.85-4.14-1.58-8.31-2.3-12.48c-0.14-0.82-0.15-1.71-0.02-2.53c0.4-2.42,2.41-4.12,4.66-4.06c2.26,0.06,4.04,1.86,4.48,4.28
			c1.12,6.21,2.32,12.41,3.49,18.62C212.02,128.09,212.08,128.54,212.11,128.69z"/>
		<path class="st2" d="M192.12,134.62c1.6,0.2,2.43,0.8,2.62,1.97c0.28,1.64,1.31,2.3,2.83,2.29c1.34-0.02,2.69-0.13,4.02-0.3
			c1.24-0.16,2.32-0.03,2.96,1.18c0.68,1.28,0.17,2.36-0.78,3.22c-2.25,2.03-4.27,4.23-5.39,7.08c-0.76,1.93-1.45,3.91-1.9,5.93
			c-0.44,1.96-1.33,3.43-2.66,3.6c-1.3,0.17-3.29-1.42-3.84-3.05c-0.37-1.09-0.68-2.2-1.14-3.24c-0.67-1.51-1.77-2.51-3.52-2.58
			c-1.09-0.04-1.93-0.44-2.37-1.5c-0.48-1.16-0.04-2.13,0.8-2.82c2.62-2.14,4.34-4.92,5.74-7.93c0.36-0.77,0.53-1.65,1-2.32
			C190.95,135.47,191.7,134.99,192.12,134.62z M192.83,150.68c0.63-1.18,1.26-2.36,1.89-3.53c0.65-1.2,1.3-2.41,1.95-3.6
			c-1.18-0.36-2.26-0.69-3.27-1c-1.29,1.65-2.53,3.23-3.77,4.81c0.6,0.51,1.18,0.92,1.66,1.42
			C191.8,149.31,192.23,149.93,192.83,150.68z"/>
		<path class="st2" d="M192.57,87.23c4.71,0.5,9.72,1,14.73,1.57c2.63,0.3,4.47,2.61,4.19,5.11c-0.28,2.47-2.66,4.33-5.25,4.07
			c-5.36-0.54-10.72-1.09-16.08-1.66c-2.23-0.24-3.95-2.14-4.01-4.35c-0.06-2.32,1.76-4.41,4.18-4.73
			C190.95,87.16,191.61,87.23,192.57,87.23z"/>
		<path class="st2" d="M124.87,158.9c5.3,0.02,8.56,4.05,7.35,9.12c-0.11,0.48-0.21,0.97-0.25,1.47c-0.16,2.03,0,2.24,2.03,2.75
			c1.6,0.4,2.37,1.45,1.98,2.77c-0.38,1.3-1.35,1.81-2.62,1.77c-3.32-0.09-6.18-3.04-6.08-6.36c0.04-1.28,0.32-2.56,0.54-3.84
			c0.29-1.63-0.18-2.5-1.81-2.8c-0.91-0.16-1.87-0.03-2.81,0.03c-1.56,0.11-2.65-0.52-2.91-1.73c-0.27-1.31,0.49-2.37,2.08-2.78
			C123.18,159.1,124.03,159.03,124.87,158.9z"/>
		<path class="st2" d="M130.03,239.12c-1.39-0.01-2.45-0.81-2.6-1.99c-0.16-1.25,0.53-2.13,2.01-2.54c2.17-0.6,2.55-1.14,2.29-3.39
			c-0.09-0.79-0.22-1.58-0.37-2.36c-0.71-3.67,0.44-6.56,3.57-8.67c1.29-0.87,2.54-0.94,3.38-0.01c0.9,1,0.92,2.54-0.4,3.42
			c-2.29,1.52-2.2,3.47-1.82,5.77c0.25,1.54,0.36,3.21,0.05,4.72C135.54,237,132.77,239.13,130.03,239.12z"/>
		<path class="st2" d="M140.98,200.05c0.24,0.2,0.48,0.38,0.69,0.57c0.89,0.81,1.14,1.8,0.47,2.82c-0.63,0.95-1.58,1.3-2.74,0.96
			c-2.87-0.85-4.13-4.21-2.48-6.75c0.46-0.71,1.11-1.28,1.59-1.98c0.95-1.36,0.69-2.24-0.77-2.92c-1.5-0.7-2.07-1.83-1.56-3.09
			c0.48-1.18,1.65-1.62,3.15-1.2c3.82,1.07,5.46,5.01,3.57,8.73C142.42,198.16,141.7,199.01,140.98,200.05z"/>
		<path class="st2" d="M137.57,215.34c-1.28-0.01-2.47-1.24-2.47-2.56c0-1.42,1.3-2.68,2.73-2.64c1.36,0.04,2.52,1.21,2.5,2.51
			C140.32,213.97,138.89,215.36,137.57,215.34z"/>
		<path class="st2" d="M136.46,180.93c1.23-0.04,2.4,1.08,2.46,2.34c0.06,1.27-1,2.44-2.26,2.52c-1.32,0.09-2.53-1.04-2.54-2.39
			C134.09,182.18,135.24,180.98,136.46,180.93z"/>
		<path class="st2" d="M111.24,138.52c-3.06-0.24-5.9-1.56-7.47-4.84c-1.51-3.16-0.89-6.14,1.11-8.87c1.22-1.67,3.31-1.71,4.01-0.05
			c0.29,0.69,0.17,1.8-0.2,2.49c-1.35,2.52-1.41,4.28,0.04,5.58c1.57,1.39,4.46,1.37,6.41-0.1c0.47-0.36,0.86-0.84,1.29-1.25
			c1.03-0.96,2.29-1.04,3.24-0.2c0.94,0.83,1.01,2.11,0.2,3.25C118.24,136.79,114.62,138.55,111.24,138.52z"/>
		<path class="st2" d="M122.7,125.99c-1.37,0.03-2.5-1.06-2.52-2.43c-0.02-1.68,1.82-3.74,3.42-3.83c1.38-0.08,2.92,1.29,2.96,2.64
			C126.61,123.84,124.36,125.95,122.7,125.99z"/>
		<path class="st2" d="M116.16,114.6c1.39,0.02,2.6,1.22,2.6,2.58c0,1.56-2.13,3.65-3.68,3.6c-1.34-0.04-2.42-1.23-2.36-2.6
			C112.79,116.52,114.65,114.58,116.16,114.6z"/>
	</g>
</g>
</svg>
